REM DIRINDEX 1\2\4\18,1\2\4\19,1\2\5\20,1\2\5\21,1\2\6\22,1\2\7\23,1\2\8\24,1\2\8\25,1\2\9\26,1\2\10\27,1\3\11\28,1\3\11\29,1\3\11\30,1\3\11\31,1\3\12\32,1\3\12\33,1\3\12\34,1\3\12\35,1\3\13\36,1\3\13\37,1\3\14\38,1\3\14\39,1\3\15\40,1\3\15\41,1\3\15\42,1\3\16\43,1\3\16\44,1\3\17\45,1\3\17\46
REM DIRNAME cjc023,folder01,folder02,folder03,folder04,folder05,folder06,folder07,folder08,folder09,folder10,folder11,folder12,folder13,folder14,folder15,folder16,folder17,folder18,folder19,folder20,folder21,folder22,folder23,folder24,folder25,folder26,folder27,folder28,folder29,folder30,folder31,folder32,folder33,folder34,folder35,folder36,folder37,folder38,folder39,folder40,folder41,folder42,folder43,folder44,folder45
TITLE ""
FILE "05.mp3" MP3
  TRACK 01 AUDIO
    TITLE "0:"
    INDEX 01 00:00:00
  TRACK 02 AUDIO
    TITLE "32:cjc023_4396"
    INDEX 01 00:00:15
  TRACK 03 AUDIO
    TITLE "0:"
    INDEX 01 00:01:24
  TRACK 04 AUDIO
    TITLE "33:cjc023_4397"
    INDEX 01 00:01:71
  TRACK 05 AUDIO
    TITLE "0:"
    INDEX 01 00:03:72
  TRACK 06 AUDIO
    TITLE "34:cjc023_4398"
    INDEX 01 00:04:21
  TRACK 07 AUDIO
    TITLE "0:"
    INDEX 01 00:06:08
  TRACK 08 AUDIO
    TITLE "35:cjc023_4399"
    INDEX 01 00:06:33
  TRACK 09 AUDIO
    TITLE "0:"
    INDEX 01 00:08:21
  TRACK 10 AUDIO
    TITLE "32:cjc023_4400"
    INDEX 01 00:09:20
  TRACK 11 AUDIO
    TITLE "0:"
    INDEX 01 00:10:27
  TRACK 12 AUDIO
    TITLE "33:cjc023_4401"
    INDEX 01 00:11:01
  TRACK 13 AUDIO
    TITLE "0:"
    INDEX 01 00:14:06
  TRACK 14 AUDIO
    TITLE "34:cjc023_4402"
    INDEX 01 00:14:27
  TRACK 15 AUDIO
    TITLE "0:"
    INDEX 01 00:16:63
  TRACK 16 AUDIO
    TITLE "35:cjc023_4403"
    INDEX 01 00:17:12
  TRACK 17 AUDIO
    TITLE "0:"
    INDEX 01 00:19:48
  TRACK 18 AUDIO
    TITLE "32:cjc023_4404"
    INDEX 01 00:20:49
  TRACK 19 AUDIO
    TITLE "0:"
    INDEX 01 00:21:47
  TRACK 20 AUDIO
    TITLE "33:cjc023_4405"
    INDEX 01 00:22:21
  TRACK 21 AUDIO
    TITLE "0:"
    INDEX 01 00:24:57
  TRACK 22 AUDIO
    TITLE "34:cjc023_4406"
    INDEX 01 00:25:03
  TRACK 23 AUDIO
    TITLE "0:"
    INDEX 01 00:27:45
  TRACK 24 AUDIO
    TITLE "35:cjc023_4407"
    INDEX 01 00:27:65
  TRACK 25 AUDIO
    TITLE "0:"
    INDEX 01 00:30:30
  TRACK 26 AUDIO
    TITLE "32:cjc023_4408"
    INDEX 01 00:31:29
  TRACK 27 AUDIO
    TITLE "0:"
    INDEX 01 00:32:35
  TRACK 28 AUDIO
    TITLE "33:cjc023_4409"
    INDEX 01 00:33:09
  TRACK 29 AUDIO
    TITLE "0:"
    INDEX 01 00:35:15
  TRACK 30 AUDIO
    TITLE "34:cjc023_4410"
    INDEX 01 00:35:39
  TRACK 31 AUDIO
    TITLE "0:"
    INDEX 01 00:37:69
  TRACK 32 AUDIO
    TITLE "35:cjc023_4411"
    INDEX 01 00:38:18
  TRACK 33 AUDIO
    TITLE "0:"
    INDEX 01 00:40:50
  TRACK 34 AUDIO
    TITLE "32:cjc023_4412"
    INDEX 01 00:41:47
  TRACK 35 AUDIO
    TITLE "0:"
    INDEX 01 00:42:53
  TRACK 36 AUDIO
    TITLE "33:cjc023_4413"
    INDEX 01 00:43:25
  TRACK 37 AUDIO
    TITLE "0:"
    INDEX 01 00:45:63
  TRACK 38 AUDIO
    TITLE "34:cjc023_4414"
    INDEX 01 00:46:11
  TRACK 39 AUDIO
    TITLE "0:"
    INDEX 01 00:48:36
  TRACK 40 AUDIO
    TITLE "35:cjc023_4415"
    INDEX 01 00:48:61
  TRACK 41 AUDIO
    TITLE "0:"
    INDEX 01 00:51:11
  TRACK 42 AUDIO
    TITLE "32:cjc023_4416"
    INDEX 01 00:52:16
  TRACK 43 AUDIO
    TITLE "0:"
    INDEX 01 00:53:19
  TRACK 44 AUDIO
    TITLE "33:cjc023_4417"
    INDEX 01 00:53:66
  TRACK 45 AUDIO
    TITLE "0:"
    INDEX 01 00:56:59
  TRACK 46 AUDIO
    TITLE "34:cjc023_4418"
    INDEX 01 00:57:05
  TRACK 47 AUDIO
    TITLE "0:"
    INDEX 01 00:59:43
  TRACK 48 AUDIO
    TITLE "35:cjc023_4419"
    INDEX 01 00:59:63
  TRACK 49 AUDIO
    TITLE "0:"
    INDEX 01 01:02:24
  TRACK 50 AUDIO
    TITLE "32:cjc023_4420"
    INDEX 01 01:03:22
  TRACK 51 AUDIO
    TITLE "0:"
    INDEX 01 01:04:39
  TRACK 52 AUDIO
    TITLE "33:cjc023_4421"
    INDEX 01 01:05:13
  TRACK 53 AUDIO
    TITLE "0:"
    INDEX 01 01:08:21
  TRACK 54 AUDIO
    TITLE "34:cjc023_4422"
    INDEX 01 01:08:46
  TRACK 55 AUDIO
    TITLE "0:"
    INDEX 01 01:11:29
  TRACK 56 AUDIO
    TITLE "35:cjc023_4423"
    INDEX 01 01:11:51
  TRACK 57 AUDIO
    TITLE "0:"
    INDEX 01 01:14:33
  TRACK 58 AUDIO
    TITLE "32:cjc023_4424"
    INDEX 01 01:15:31
  TRACK 59 AUDIO
    TITLE "0:"
    INDEX 01 01:16:30
  TRACK 60 AUDIO
    TITLE "33:cjc023_4425"
    INDEX 01 01:17:00
  TRACK 61 AUDIO
    TITLE "0:"
    INDEX 01 01:19:56
  TRACK 62 AUDIO
    TITLE "34:cjc023_4426"
    INDEX 01 01:20:06
  TRACK 63 AUDIO
    TITLE "0:"
    INDEX 01 01:21:65
  TRACK 64 AUDIO
    TITLE "35:cjc023_4427"
    INDEX 01 01:22:15
  TRACK 65 AUDIO
    TITLE "0:"
    INDEX 01 01:24:00
  TRACK 66 AUDIO
    TITLE "32:cjc023_4428"
    INDEX 01 01:25:02
  TRACK 67 AUDIO
    TITLE "0:"
    INDEX 01 01:25:72
  TRACK 68 AUDIO
    TITLE "33:cjc023_4429"
    INDEX 01 01:26:56
  TRACK 69 AUDIO
    TITLE "0:"
    INDEX 01 01:29:09
  TRACK 70 AUDIO
    TITLE "34:cjc023_4430"
    INDEX 01 01:29:31
  TRACK 71 AUDIO
    TITLE "0:"
    INDEX 01 01:31:43
  TRACK 72 AUDIO
    TITLE "35:cjc023_4431"
    INDEX 01 01:31:63
  TRACK 73 AUDIO
    TITLE "0:"
    INDEX 01 01:33:74
  TRACK 74 AUDIO
    TITLE "32:cjc023_4432"
    INDEX 01 01:34:71
  TRACK 75 AUDIO
    TITLE "0:"
    INDEX 01 01:36:15
  TRACK 76 AUDIO
    TITLE "33:cjc023_4433"
    INDEX 01 01:36:60
  TRACK 77 AUDIO
    TITLE "0:"
    INDEX 01 01:39:23
  TRACK 78 AUDIO
    TITLE "34:cjc023_4434"
    INDEX 01 01:39:47
  TRACK 79 AUDIO
    TITLE "0:"
    INDEX 01 01:41:65
  TRACK 80 AUDIO
    TITLE "35:cjc023_4435"
    INDEX 01 01:42:12
  TRACK 81 AUDIO
    TITLE "0:"
    INDEX 01 01:44:28
  TRACK 82 AUDIO
    TITLE "32:cjc023_4436"
    INDEX 01 01:45:26
  TRACK 83 AUDIO
    TITLE "0:"
    INDEX 01 01:46:18
  TRACK 84 AUDIO
    TITLE "33:cjc023_4437"
    INDEX 01 01:46:65
  TRACK 85 AUDIO
    TITLE "0:"
    INDEX 01 01:49:45
  TRACK 86 AUDIO
    TITLE "34:cjc023_4438"
    INDEX 01 01:49:69
  TRACK 87 AUDIO
    TITLE "0:"
    INDEX 01 01:52:49
  TRACK 88 AUDIO
    TITLE "35:cjc023_4439"
    INDEX 01 01:52:69
  TRACK 89 AUDIO
    TITLE "0:"
    INDEX 01 01:55:48
  TRACK 90 AUDIO
    TITLE "32:cjc023_4440"
    INDEX 01 01:56:43
  TRACK 91 AUDIO
    TITLE "0:"
    INDEX 01 01:57:45
  TRACK 92 AUDIO
    TITLE "33:cjc023_4441"
    INDEX 01 01:58:19
  TRACK 93 AUDIO
    TITLE "0:"
    INDEX 01 02:01:29
  TRACK 94 AUDIO
    TITLE "34:cjc023_4442"
    INDEX 01 02:01:54
  TRACK 95 AUDIO
    TITLE "0:"
    INDEX 01 02:03:69
  TRACK 96 AUDIO
    TITLE "35:cjc023_4443"
    INDEX 01 02:04:13
  TRACK 97 AUDIO
    TITLE "0:"
    INDEX 01 02:06:26
  TRACK 98 AUDIO
    TITLE "32:cjc023_4444"
    INDEX 01 02:07:22
  TRACK 99 AUDIO
    TITLE "0:"
    INDEX 01 02:08:27
  TRACK 100 AUDIO
    TITLE "33:cjc023_4445"
    INDEX 01 02:09:01
  TRACK 101 AUDIO
    TITLE "0:"
    INDEX 01 02:12:03
  TRACK 102 AUDIO
    TITLE "34:cjc023_4446"
    INDEX 01 02:12:23
  TRACK 103 AUDIO
    TITLE "0:"
    INDEX 01 02:15:13
  TRACK 104 AUDIO
    TITLE "35:cjc023_4447"
    INDEX 01 02:15:33
  TRACK 105 AUDIO
    TITLE "0:"
    INDEX 01 02:18:23
  TRACK 106 AUDIO
    TITLE "32:cjc023_4448"
    INDEX 01 02:19:17
  TRACK 107 AUDIO
    TITLE "0:"
    INDEX 01 02:20:26
  TRACK 108 AUDIO
    TITLE "33:cjc023_4449"
    INDEX 01 02:21:00
  TRACK 109 AUDIO
    TITLE "0:"
    INDEX 01 02:23:72
  TRACK 110 AUDIO
    TITLE "34:cjc023_4450"
    INDEX 01 02:24:18
  TRACK 111 AUDIO
    TITLE "0:"
    INDEX 01 02:26:46
  TRACK 112 AUDIO
    TITLE "35:cjc023_4451"
    INDEX 01 02:26:66
  TRACK 113 AUDIO
    TITLE "0:"
    INDEX 01 02:29:17
  TRACK 114 AUDIO
    TITLE "32:cjc023_4452"
    INDEX 01 02:30:13
  TRACK 115 AUDIO
    TITLE "0:"
    INDEX 01 02:31:18
  TRACK 116 AUDIO
    TITLE "33:cjc023_4453"
    INDEX 01 02:31:63
  TRACK 117 AUDIO
    TITLE "0:"
    INDEX 01 02:33:66
  TRACK 118 AUDIO
    TITLE "34:cjc023_4454"
    INDEX 01 02:34:15
  TRACK 119 AUDIO
    TITLE "0:"
    INDEX 01 02:36:29
  TRACK 120 AUDIO
    TITLE "35:cjc023_4455"
    INDEX 01 02:36:53
  TRACK 121 AUDIO
    TITLE "0:"
    INDEX 01 02:38:69
  TRACK 122 AUDIO
    TITLE "32:cjc023_4456"
    INDEX 01 02:39:65
  TRACK 123 AUDIO
    TITLE "0:"
    INDEX 01 02:40:60
  TRACK 124 AUDIO
    TITLE "33:cjc023_4457"
    INDEX 01 02:41:32
  TRACK 125 AUDIO
    TITLE "0:"
    INDEX 01 02:44:42
  TRACK 126 AUDIO
    TITLE "34:cjc023_4458"
    INDEX 01 02:44:64
  TRACK 127 AUDIO
    TITLE "0:"
    INDEX 01 02:47:03
  TRACK 128 AUDIO
    TITLE "35:cjc023_4459"
    INDEX 01 02:47:25
  TRACK 129 AUDIO
    TITLE "0:"
    INDEX 01 02:49:42
  TRACK 130 AUDIO
    TITLE "32:cjc023_4460"
    INDEX 01 02:50:39
  TRACK 131 AUDIO
    TITLE "0:"
    INDEX 01 02:51:50
  TRACK 132 AUDIO
    TITLE "33:cjc023_4461"
    INDEX 01 02:52:30
  TRACK 133 AUDIO
    TITLE "0:"
    INDEX 01 02:55:38
  TRACK 134 AUDIO
    TITLE "34:cjc023_4462"
    INDEX 01 02:55:58
  TRACK 135 AUDIO
    TITLE "0:"
    INDEX 01 02:58:05
  TRACK 136 AUDIO
    TITLE "35:cjc023_4463"
    INDEX 01 02:58:27
  TRACK 137 AUDIO
    TITLE "0:"
    INDEX 01 03:00:47
  TRACK 138 AUDIO
    TITLE "32:cjc023_4464"
    INDEX 01 03:01:43
  TRACK 139 AUDIO
    TITLE "0:"
    INDEX 01 03:02:60
  TRACK 140 AUDIO
    TITLE "33:cjc023_4465"
    INDEX 01 03:03:32
  TRACK 141 AUDIO
    TITLE "0:"
    INDEX 01 03:06:44
  TRACK 142 AUDIO
    TITLE "34:cjc023_4466"
    INDEX 01 03:06:69
  TRACK 143 AUDIO
    TITLE "0:"
    INDEX 01 03:09:03
  TRACK 144 AUDIO
    TITLE "35:cjc023_4467"
    INDEX 01 03:09:27
  TRACK 145 AUDIO
    TITLE "0:"
    INDEX 01 03:11:39
  TRACK 146 AUDIO
    TITLE "32:cjc023_4468"
    INDEX 01 03:12:35
  TRACK 147 AUDIO
    TITLE "0:"
    INDEX 01 03:13:32
  TRACK 148 AUDIO
    TITLE "33:cjc023_4469"
    INDEX 01 03:14:04
  TRACK 149 AUDIO
    TITLE "0:"
    INDEX 01 03:17:38
  TRACK 150 AUDIO
    TITLE "34:cjc023_4470"
    INDEX 01 03:17:63
  TRACK 151 AUDIO
    TITLE "0:"
    INDEX 01 03:20:26
  TRACK 152 AUDIO
    TITLE "35:cjc023_4471"
    INDEX 01 03:20:48
  TRACK 153 AUDIO
    TITLE "0:"
    INDEX 01 03:23:09
  TRACK 154 AUDIO
    TITLE "32:cjc023_4472"
    INDEX 01 03:24:07
  TRACK 155 AUDIO
    TITLE "0:"
    INDEX 01 03:25:08
  TRACK 156 AUDIO
    TITLE "33:cjc023_4473"
    INDEX 01 03:25:57
  TRACK 157 AUDIO
    TITLE "0:"
    INDEX 01 03:27:70
  TRACK 158 AUDIO
    TITLE "34:cjc023_4474"
    INDEX 01 03:28:16
  TRACK 159 AUDIO
    TITLE "0:"
    INDEX 01 03:30:62
  TRACK 160 AUDIO
    TITLE "35:cjc023_4475"
    INDEX 01 03:31:15
  TRACK 161 AUDIO
    TITLE "0:"
    INDEX 01 03:33:64
  TRACK 162 AUDIO
    TITLE "32:cjc023_4476"
    INDEX 01 03:34:66
  TRACK 163 AUDIO
    TITLE "0:"
    INDEX 01 03:35:69
  TRACK 164 AUDIO
    TITLE "33:cjc023_4477"
    INDEX 01 03:36:41
  TRACK 165 AUDIO
    TITLE "0:"
    INDEX 01 03:39:34
  TRACK 166 AUDIO
    TITLE "34:cjc023_4478"
    INDEX 01 03:39:53
  TRACK 167 AUDIO
    TITLE "0:"
    INDEX 01 03:42:10
  TRACK 168 AUDIO
    TITLE "35:cjc023_4479"
    INDEX 01 03:42:30
  TRACK 169 AUDIO
    TITLE "0:"
    INDEX 01 03:44:62
  TRACK 170 AUDIO
    TITLE "32:cjc023_4480"
    INDEX 01 03:45:58
  TRACK 171 AUDIO
    TITLE "0:"
    INDEX 01 03:46:65
  TRACK 172 AUDIO
    TITLE "33:cjc023_4481"
    INDEX 01 03:47:39
  TRACK 173 AUDIO
    TITLE "0:"
    INDEX 01 03:50:02
  TRACK 174 AUDIO
    TITLE "34:cjc023_4482"
    INDEX 01 03:50:24
  TRACK 175 AUDIO
    TITLE "0:"
    INDEX 01 03:52:36
  TRACK 176 AUDIO
    TITLE "35:cjc023_4483"
    INDEX 01 03:52:58
  TRACK 177 AUDIO
    TITLE "0:"
    INDEX 01 03:54:70
  TRACK 178 AUDIO
    TITLE "32:cjc023_4484"
    INDEX 01 03:55:66
  TRACK 179 AUDIO
    TITLE "0:"
    INDEX 01 03:57:57
  TRACK 180 AUDIO
    TITLE "33:cjc023_4485"
    INDEX 01 03:58:31
  TRACK 181 AUDIO
    TITLE "0:"
    INDEX 01 04:01:08
  TRACK 182 AUDIO
    TITLE "34:cjc023_4486"
    INDEX 01 04:01:31
  TRACK 183 AUDIO
    TITLE "0:"
    INDEX 01 04:04:34
  TRACK 184 AUDIO
    TITLE "35:cjc023_4487"
    INDEX 01 04:04:57
  TRACK 185 AUDIO
    TITLE "0:"
    INDEX 01 04:07:57
  TRACK 186 AUDIO
    TITLE "32:cjc023_4488"
    INDEX 01 04:08:57
  TRACK 187 AUDIO
    TITLE "0:"
    INDEX 01 04:09:74
  TRACK 188 AUDIO
    TITLE "33:cjc023_4489"
    INDEX 01 04:10:46
  TRACK 189 AUDIO
    TITLE "0:"
    INDEX 01 04:12:74
  TRACK 190 AUDIO
    TITLE "34:cjc023_4490"
    INDEX 01 04:13:23
  TRACK 191 AUDIO
    TITLE "0:"
    INDEX 01 04:15:59
  TRACK 192 AUDIO
    TITLE "35:cjc023_4491"
    INDEX 01 04:16:07
  TRACK 193 AUDIO
    TITLE "0:"
    INDEX 01 04:18:45
  TRACK 194 AUDIO
    TITLE "32:cjc023_4492"
    INDEX 01 04:19:43
  TRACK 195 AUDIO
    TITLE "0:"
    INDEX 01 04:21:24
  TRACK 196 AUDIO
    TITLE "33:cjc023_4493"
    INDEX 01 04:21:71
  TRACK 197 AUDIO
    TITLE "0:"
    INDEX 01 04:24:19
  TRACK 198 AUDIO
    TITLE "34:cjc023_4494"
    INDEX 01 04:24:42
  TRACK 199 AUDIO
    TITLE "0:"
    INDEX 01 04:27:05
  TRACK 200 AUDIO
    TITLE "35:cjc023_4495"
    INDEX 01 04:27:31
  TRACK 201 AUDIO
    TITLE "0:"
    INDEX 01 04:29:69
  TRACK 202 AUDIO
    TITLE "32:cjc023_4496"
    INDEX 01 04:30:70
  TRACK 203 AUDIO
    TITLE "0:"
    INDEX 01 04:32:12
  TRACK 204 AUDIO
    TITLE "33:cjc023_4497"
    INDEX 01 04:32:59
  TRACK 205 AUDIO
    TITLE "0:"
    INDEX 01 04:36:30
  TRACK 206 AUDIO
    TITLE "34:cjc023_4498"
    INDEX 01 04:36:53
  TRACK 207 AUDIO
    TITLE "0:"
    INDEX 01 04:39:44
  TRACK 208 AUDIO
    TITLE "35:cjc023_4499"
    INDEX 01 04:39:67
  TRACK 209 AUDIO
    TITLE "0:"
    INDEX 01 04:42:60
  TRACK 210 AUDIO
    TITLE "32:cjc023_4500"
    INDEX 01 04:43:57
  TRACK 211 AUDIO
    TITLE "0:"
    INDEX 01 04:44:60
  TRACK 212 AUDIO
    TITLE "33:cjc023_4501"
    INDEX 01 04:45:34
  TRACK 213 AUDIO
    TITLE "0:"
    INDEX 01 04:48:33
  TRACK 214 AUDIO
    TITLE "34:cjc023_4502"
    INDEX 01 04:48:54
  TRACK 215 AUDIO
    TITLE "0:"
    INDEX 01 04:51:35
  TRACK 216 AUDIO
    TITLE "35:cjc023_4503"
    INDEX 01 04:51:57
  TRACK 217 AUDIO
    TITLE "0:"
    INDEX 01 04:54:39
  TRACK 218 AUDIO
    TITLE "32:cjc023_4504"
    INDEX 01 04:55:37
  TRACK 219 AUDIO
    TITLE "0:"
    INDEX 01 04:56:54
  TRACK 220 AUDIO
    TITLE "33:cjc023_4505"
    INDEX 01 04:57:24
  TRACK 221 AUDIO
    TITLE "0:"
    INDEX 01 04:59:74
  TRACK 222 AUDIO
    TITLE "34:cjc023_4506"
    INDEX 01 05:00:20
  TRACK 223 AUDIO
    TITLE "0:"
    INDEX 01 05:02:66
  TRACK 224 AUDIO
    TITLE "35:cjc023_4507"
    INDEX 01 05:03:13
  TRACK 225 AUDIO
    TITLE "0:"
    INDEX 01 05:05:57
  TRACK 226 AUDIO
    TITLE "32:cjc023_4508"
    INDEX 01 05:06:56
  TRACK 227 AUDIO
    TITLE "0:"
    INDEX 01 05:07:69
  TRACK 228 AUDIO
    TITLE "33:cjc023_4509"
    INDEX 01 05:08:45
  TRACK 229 AUDIO
    TITLE "0:"
    INDEX 01 05:10:40
  TRACK 230 AUDIO
    TITLE "34:cjc023_4510"
    INDEX 01 05:10:64
  TRACK 231 AUDIO
    TITLE "0:"
    INDEX 01 05:13:27
  TRACK 232 AUDIO
    TITLE "35:cjc023_4511"
    INDEX 01 05:13:50
  TRACK 233 AUDIO
    TITLE "0:"
    INDEX 01 05:16:12
  TRACK 234 AUDIO
    TITLE "32:cjc023_4512"
    INDEX 01 05:17:09
  TRACK 235 AUDIO
    TITLE "0:"
    INDEX 01 05:18:32
  TRACK 236 AUDIO
    TITLE "33:cjc023_4513"
    INDEX 01 05:19:08
  TRACK 237 AUDIO
    TITLE "0:"
    INDEX 01 05:21:66
  TRACK 238 AUDIO
    TITLE "34:cjc023_4514"
    INDEX 01 05:22:12
  TRACK 239 AUDIO
    TITLE "0:"
    INDEX 01 05:24:48
  TRACK 240 AUDIO
    TITLE "35:cjc023_4515"
    INDEX 01 05:25:07
  TRACK 241 AUDIO
    TITLE "0:"
    INDEX 01 05:27:43
  TRACK 242 AUDIO
    TITLE "32:cjc023_4516"
    INDEX 01 05:28:52
  TRACK 243 AUDIO
    TITLE "0:"
    INDEX 01 05:29:51
  TRACK 244 AUDIO
    TITLE "33:cjc023_4517"
    INDEX 01 05:30:27
  TRACK 245 AUDIO
    TITLE "0:"
    INDEX 01 05:33:45
  TRACK 246 AUDIO
    TITLE "34:cjc023_4518"
    INDEX 01 05:33:67
  TRACK 247 AUDIO
    TITLE "0:"
    INDEX 01 05:36:49
  TRACK 248 AUDIO
    TITLE "35:cjc023_4519"
    INDEX 01 05:36:73
  TRACK 249 AUDIO
    TITLE "0:"
    INDEX 01 05:39:58
  TRACK 250 AUDIO
    TITLE "32:cjc023_4520"
    INDEX 01 05:40:55
  TRACK 251 AUDIO
    TITLE "0:"
    INDEX 01 05:41:72
  TRACK 252 AUDIO
    TITLE "33:cjc023_4521"
    INDEX 01 05:42:42
  TRACK 253 AUDIO
    TITLE "0:"
    INDEX 01 05:45:66
  TRACK 254 AUDIO
    TITLE "34:cjc023_4522"
    INDEX 01 05:46:15
  TRACK 255 AUDIO
    TITLE "0:"
    INDEX 01 05:49:03
  TRACK 256 AUDIO
    TITLE "35:cjc023_4523"
    INDEX 01 05:49:31
  TRACK 257 AUDIO
    TITLE "0:"
    INDEX 01 05:52:21
  TRACK 258 AUDIO
    TITLE "32:cjc023_4524"
    INDEX 01 05:53:21
  TRACK 259 AUDIO
    TITLE "0:"
    INDEX 01 05:54:26
  TRACK 260 AUDIO
    TITLE "33:cjc023_4525"
    INDEX 01 05:55:00
  TRACK 261 AUDIO
    TITLE "0:"
    INDEX 01 05:57:44
  TRACK 262 AUDIO
    TITLE "34:cjc023_4526"
    INDEX 01 05:57:71
  TRACK 263 AUDIO
    TITLE "0:"
    INDEX 01 06:00:64
  TRACK 264 AUDIO
    TITLE "35:cjc023_4527"
    INDEX 01 06:01:10
  TRACK 265 AUDIO
    TITLE "0:"
    INDEX 01 06:04:03
  TRACK 266 AUDIO
    TITLE "32:cjc023_4528"
    INDEX 01 06:05:00
  TRACK 267 AUDIO
    TITLE "0:"
    INDEX 01 06:06:06
  TRACK 268 AUDIO
    TITLE "33:cjc023_4529"
    INDEX 01 06:06:58
  TRACK 269 AUDIO
    TITLE "0:"
    INDEX 01 06:09:20
  TRACK 270 AUDIO
    TITLE "34:cjc023_4530"
    INDEX 01 06:09:41
  TRACK 271 AUDIO
    TITLE "0:"
    INDEX 01 06:11:63
  TRACK 272 AUDIO
    TITLE "35:cjc023_4531"
    INDEX 01 06:12:10
  TRACK 273 AUDIO
    TITLE "0:"
    INDEX 01 06:14:34
  TRACK 274 AUDIO
    TITLE "32:cjc023_4532"
    INDEX 01 06:15:30
  TRACK 275 AUDIO
    TITLE "0:"
    INDEX 01 06:16:37
  TRACK 276 AUDIO
    TITLE "33:cjc023_4533"
    INDEX 01 06:17:11
  TRACK 277 AUDIO
    TITLE "0:"
    INDEX 01 06:20:00
  TRACK 278 AUDIO
    TITLE "34:cjc023_4534"
    INDEX 01 06:20:25
  TRACK 279 AUDIO
    TITLE "0:"
    INDEX 01 06:23:24
  TRACK 280 AUDIO
    TITLE "35:cjc023_4535"
    INDEX 01 06:23:47
  TRACK 281 AUDIO
    TITLE "0:"
    INDEX 01 06:26:47
  TRACK 282 AUDIO
    TITLE "32:cjc023_4536"
    INDEX 01 06:27:45
  TRACK 283 AUDIO
    TITLE "0:"
    INDEX 01 06:28:60
  TRACK 284 AUDIO
    TITLE "33:cjc023_4537"
    INDEX 01 06:29:30
  TRACK 285 AUDIO
    TITLE "0:"
    INDEX 01 06:32:28
  TRACK 286 AUDIO
    TITLE "34:cjc023_4538"
    INDEX 01 06:32:52
  TRACK 287 AUDIO
    TITLE "0:"
    INDEX 01 06:35:40
  TRACK 288 AUDIO
    TITLE "35:cjc023_4539"
    INDEX 01 06:35:62
  TRACK 289 AUDIO
    TITLE "0:"
    INDEX 01 06:38:51
  TRACK 290 AUDIO
    TITLE "32:cjc023_4540"
    INDEX 01 06:39:46
  TRACK 291 AUDIO
    TITLE "0:"
    INDEX 01 06:40:57
  TRACK 292 AUDIO
    TITLE "33:cjc023_4541"
    INDEX 01 06:41:29
  TRACK 293 AUDIO
    TITLE "0:"
    INDEX 01 06:44:32
  TRACK 294 AUDIO
    TITLE "34:cjc023_4542"
    INDEX 01 06:44:55
  TRACK 295 AUDIO
    TITLE "0:"
    INDEX 01 06:47:24
  TRACK 296 AUDIO
    TITLE "35:cjc023_4543"
    INDEX 01 06:47:50
  TRACK 297 AUDIO
    TITLE "0:"
    INDEX 01 06:50:22
  TRACK 298 AUDIO
    TITLE "32:cjc023_4544"
    INDEX 01 06:51:20
  TRACK 299 AUDIO
    TITLE "0:"
    INDEX 01 06:52:33
  TRACK 300 AUDIO
    TITLE "33:cjc023_4545"
    INDEX 01 06:53:07
  TRACK 301 AUDIO
    TITLE "0:"
    INDEX 01 06:56:68
  TRACK 302 AUDIO
    TITLE "34:cjc023_4546"
    INDEX 01 06:57:15
  TRACK 303 AUDIO
    TITLE "0:"
    INDEX 01 06:59:59
  TRACK 304 AUDIO
    TITLE "35:cjc023_4547"
    INDEX 01 07:00:03
  TRACK 305 AUDIO
    TITLE "0:"
    INDEX 01 07:02:45
  TRACK 306 AUDIO
    TITLE "32:cjc023_4548"
    INDEX 01 07:03:41
  TRACK 307 AUDIO
    TITLE "0:"
    INDEX 01 07:05:04
  TRACK 308 AUDIO
    TITLE "33:cjc023_4549"
    INDEX 01 07:05:51
  TRACK 309 AUDIO
    TITLE "0:"
    INDEX 01 07:08:12
  TRACK 310 AUDIO
    TITLE "34:cjc023_4550"
    INDEX 01 07:08:32
  TRACK 311 AUDIO
    TITLE "0:"
    INDEX 01 07:10:58
  TRACK 312 AUDIO
    TITLE "35:cjc023_4551"
    INDEX 01 07:11:05
  TRACK 313 AUDIO
    TITLE "0:"
    INDEX 01 07:13:31
  TRACK 314 AUDIO
    TITLE "32:cjc023_4552"
    INDEX 01 07:14:27
  TRACK 315 AUDIO
    TITLE "0:"
    INDEX 01 07:15:63
  TRACK 316 AUDIO
    TITLE "33:cjc023_4553"
    INDEX 01 07:16:34
  TRACK 317 AUDIO
    TITLE "0:"
    INDEX 01 07:19:32
  TRACK 318 AUDIO
    TITLE "34:cjc023_4554"
    INDEX 01 07:19:57
  TRACK 319 AUDIO
    TITLE "0:"
    INDEX 01 07:22:42
  TRACK 320 AUDIO
    TITLE "35:cjc023_4555"
    INDEX 01 07:22:66
  TRACK 321 AUDIO
    TITLE "0:"
    INDEX 01 07:25:48
  TRACK 322 AUDIO
    TITLE "32:cjc023_4556"
    INDEX 01 07:26:46
  TRACK 323 AUDIO
    TITLE "0:"
    INDEX 01 07:27:47
  TRACK 324 AUDIO
    TITLE "33:cjc023_4557"
    INDEX 01 07:28:21
  TRACK 325 AUDIO
    TITLE "0:"
    INDEX 01 07:30:69
  TRACK 326 AUDIO
    TITLE "34:cjc023_4558"
    INDEX 01 07:31:17
  TRACK 327 AUDIO
    TITLE "0:"
    INDEX 01 07:33:26
  TRACK 328 AUDIO
    TITLE "35:cjc023_4559"
    INDEX 01 07:33:50
  TRACK 329 AUDIO
    TITLE "0:"
    INDEX 01 07:35:62
  TRACK 330 AUDIO
    TITLE "32:cjc023_4560"
    INDEX 01 07:36:58
  TRACK 331 AUDIO
    TITLE "0:"
    INDEX 01 07:37:59
  TRACK 332 AUDIO
    TITLE "33:cjc023_4561"
    INDEX 01 07:38:31
  TRACK 333 AUDIO
    TITLE "0:"
    INDEX 01 07:41:51
  TRACK 334 AUDIO
    TITLE "34:cjc023_4562"
    INDEX 01 07:42:00
  TRACK 335 AUDIO
    TITLE "0:"
    INDEX 01 07:44:38
  TRACK 336 AUDIO
    TITLE "35:cjc023_4563"
    INDEX 01 07:44:59
  TRACK 337 AUDIO
    TITLE "0:"
    INDEX 01 07:47:22
  TRACK 338 AUDIO
    TITLE "32:cjc023_4564"
    INDEX 01 07:48:18
  TRACK 339 AUDIO
    TITLE "0:"
    INDEX 01 07:49:15
  TRACK 340 AUDIO
    TITLE "33:cjc023_4565"
    INDEX 01 07:49:64
  TRACK 341 AUDIO
    TITLE "0:"
    INDEX 01 07:53:11
  TRACK 342 AUDIO
    TITLE "34:cjc023_4566"
    INDEX 01 07:53:35
  TRACK 343 AUDIO
    TITLE "0:"
    INDEX 01 07:56:00
  TRACK 344 AUDIO
    TITLE "35:cjc023_4567"
    INDEX 01 07:56:19
  TRACK 345 AUDIO
    TITLE "0:"
    INDEX 01 07:58:59
  TRACK 346 AUDIO
    TITLE "32:cjc023_4568"
    INDEX 01 07:59:55
  TRACK 347 AUDIO
    TITLE "0:"
    INDEX 01 08:00:54
  TRACK 348 AUDIO
    TITLE "33:cjc023_4569"
    INDEX 01 08:01:24
  TRACK 349 AUDIO
    TITLE "0:"
    INDEX 01 08:03:72
  TRACK 350 AUDIO
    TITLE "34:cjc023_4570"
    INDEX 01 08:04:21
  TRACK 351 AUDIO
    TITLE "0:"
    INDEX 01 08:06:63
  TRACK 352 AUDIO
    TITLE "35:cjc023_4571"
    INDEX 01 08:07:07
  TRACK 353 AUDIO
    TITLE "0:"
    INDEX 01 08:09:49
  TRACK 354 AUDIO
    TITLE "32:cjc023_4572"
    INDEX 01 08:10:45
  TRACK 355 AUDIO
    TITLE "0:"
    INDEX 01 08:11:52
  TRACK 356 AUDIO
    TITLE "33:cjc023_4573"
    INDEX 01 08:12:22
  TRACK 357 AUDIO
    TITLE "0:"
    INDEX 01 08:15:36
  TRACK 358 AUDIO
    TITLE "34:cjc023_4574"
    INDEX 01 08:15:58
  TRACK 359 AUDIO
    TITLE "0:"
    INDEX 01 08:18:66
  TRACK 360 AUDIO
    TITLE "35:cjc023_4575"
    INDEX 01 08:19:13
  TRACK 361 AUDIO
    TITLE "0:"
    INDEX 01 08:22:21
  TRACK 362 AUDIO
    TITLE "32:cjc023_4576"
    INDEX 01 08:23:18
  TRACK 363 AUDIO
    TITLE "0:"
    INDEX 01 08:24:20
  TRACK 364 AUDIO
    TITLE "33:cjc023_4577"
    INDEX 01 08:24:67
  TRACK 365 AUDIO
    TITLE "0:"
    INDEX 01 08:27:45
  TRACK 366 AUDIO
    TITLE "34:cjc023_4578"
    INDEX 01 08:27:67
  TRACK 367 AUDIO
    TITLE "0:"
    INDEX 01 08:30:24
  TRACK 368 AUDIO
    TITLE "35:cjc023_4579"
    INDEX 01 08:30:46
  TRACK 369 AUDIO
    TITLE "0:"
    INDEX 01 08:33:05
  TRACK 370 AUDIO
    TITLE "32:cjc023_4580"
    INDEX 01 08:34:00
  TRACK 371 AUDIO
    TITLE "0:"
    INDEX 01 08:34:71
  TRACK 372 AUDIO
    TITLE "33:cjc023_4581"
    INDEX 01 08:35:45
  TRACK 373 AUDIO
    TITLE "0:"
    INDEX 01 08:37:63
  TRACK 374 AUDIO
    TITLE "34:cjc023_4582"
    INDEX 01 08:38:06
  TRACK 375 AUDIO
    TITLE "0:"
    INDEX 01 08:40:11
  TRACK 376 AUDIO
    TITLE "35:cjc023_4583"
    INDEX 01 08:40:30
  TRACK 377 AUDIO
    TITLE "0:"
    INDEX 01 08:42:33
  TRACK 378 AUDIO
    TITLE "32:cjc023_4584"
    INDEX 01 08:43:29
  TRACK 379 AUDIO
    TITLE "0:"
    INDEX 01 08:44:59
  TRACK 380 AUDIO
    TITLE "33:cjc023_4585"
    INDEX 01 08:45:32
  TRACK 381 AUDIO
    TITLE "0:"
    INDEX 01 08:48:18
  TRACK 382 AUDIO
    TITLE "34:cjc023_4586"
    INDEX 01 08:48:40
  TRACK 383 AUDIO
    TITLE "0:"
    INDEX 01 08:51:20
  TRACK 384 AUDIO
    TITLE "35:cjc023_4587"
    INDEX 01 08:51:48
  TRACK 385 AUDIO
    TITLE "0:"
    INDEX 01 08:54:29
  TRACK 386 AUDIO
    TITLE "32:cjc023_4588"
    INDEX 01 08:55:28
  TRACK 387 AUDIO
    TITLE "0:"
    INDEX 01 08:56:37
  TRACK 388 AUDIO
    TITLE "33:cjc023_4589"
    INDEX 01 08:57:07
  TRACK 389 AUDIO
    TITLE "0:"
    INDEX 01 09:00:29
  TRACK 390 AUDIO
    TITLE "34:cjc023_4590"
    INDEX 01 09:00:53
  TRACK 391 AUDIO
    TITLE "0:"
    INDEX 01 09:03:37
  TRACK 392 AUDIO
    TITLE "35:cjc023_4591"
    INDEX 01 09:03:59
  TRACK 393 AUDIO
    TITLE "0:"
    INDEX 01 09:06:43
  TRACK 394 AUDIO
    TITLE "32:cjc023_4592"
    INDEX 01 09:07:43
  TRACK 395 AUDIO
    TITLE "0:"
    INDEX 01 09:08:50
  TRACK 396 AUDIO
    TITLE "33:cjc023_4593"
    INDEX 01 09:09:30
  TRACK 397 AUDIO
    TITLE "0:"
    INDEX 01 09:11:64
  TRACK 398 AUDIO
    TITLE "34:cjc023_4594"
    INDEX 01 09:12:07
  TRACK 399 AUDIO
    TITLE "0:"
    INDEX 01 09:14:14
  TRACK 400 AUDIO
    TITLE "35:cjc023_4595"
    INDEX 01 09:14:33
  TRACK 401 AUDIO
    TITLE "0:"
    INDEX 01 09:16:36
  TRACK 402 AUDIO
    TITLE "32:cjc023_4596"
    INDEX 01 09:17:37
  TRACK 403 AUDIO
    TITLE "0:"
    INDEX 01 09:18:51
  TRACK 404 AUDIO
    TITLE "33:cjc023_4597"
    INDEX 01 09:19:25
  TRACK 405 AUDIO
    TITLE "0:"
    INDEX 01 09:21:57
  TRACK 406 AUDIO
    TITLE "34:cjc023_4598"
    INDEX 01 09:22:05
  TRACK 407 AUDIO
    TITLE "0:"
    INDEX 01 09:24:12
  TRACK 408 AUDIO
    TITLE "35:cjc023_4599"
    INDEX 01 09:24:37
  TRACK 409 AUDIO
    TITLE "0:"
    INDEX 01 09:26:44
  TRACK 410 AUDIO
    TITLE "32:cjc023_4600"
    INDEX 01 09:27:44
  TRACK 411 AUDIO
    TITLE "0:"
    INDEX 01 09:28:53
  TRACK 412 AUDIO
    TITLE "33:cjc023_4601"
    INDEX 01 09:29:29
  TRACK 413 AUDIO
    TITLE "0:"
    INDEX 01 09:32:51
  TRACK 414 AUDIO
    TITLE "34:cjc023_4602"
    INDEX 01 09:32:74
  TRACK 415 AUDIO
    TITLE "0:"
    INDEX 01 09:36:03
  TRACK 416 AUDIO
    TITLE "35:cjc023_4603"
    INDEX 01 09:36:25
  TRACK 417 AUDIO
    TITLE "0:"
    INDEX 01 09:39:27
  TRACK 418 AUDIO
    TITLE "32:cjc023_4604"
    INDEX 01 09:40:25
  TRACK 419 AUDIO
    TITLE "0:"
    INDEX 01 09:41:32
  TRACK 420 AUDIO
    TITLE "33:cjc023_4605"
    INDEX 01 09:42:04
  TRACK 421 AUDIO
    TITLE "0:"
    INDEX 01 09:45:18
  TRACK 422 AUDIO
    TITLE "34:cjc023_4606"
    INDEX 01 09:45:40
  TRACK 423 AUDIO
    TITLE "0:"
    INDEX 01 09:48:24
  TRACK 424 AUDIO
    TITLE "35:cjc023_4607"
    INDEX 01 09:48:52
  TRACK 425 AUDIO
    TITLE "0:"
    INDEX 01 09:51:34
  TRACK 426 AUDIO
    TITLE "32:cjc023_4608"
    INDEX 01 09:52:40
  TRACK 427 AUDIO
    TITLE "0:"
    INDEX 01 09:53:70
  TRACK 428 AUDIO
    TITLE "33:cjc023_4609"
    INDEX 01 09:54:44
  TRACK 429 AUDIO
    TITLE "0:"
    INDEX 01 09:57:17
  TRACK 430 AUDIO
    TITLE "34:cjc023_4610"
    INDEX 01 09:57:39
  TRACK 431 AUDIO
    TITLE "0:"
    INDEX 01 10:00:57
  TRACK 432 AUDIO
    TITLE "35:cjc023_4611"
    INDEX 01 10:01:03
  TRACK 433 AUDIO
    TITLE "0:"
    INDEX 01 10:04:21
  TRACK 434 AUDIO
    TITLE "32:cjc023_4612"
    INDEX 01 10:05:19
  TRACK 435 AUDIO
    TITLE "0:"
    INDEX 01 10:06:24
  TRACK 436 AUDIO
    TITLE "33:cjc023_4613"
    INDEX 01 10:06:67
  TRACK 437 AUDIO
    TITLE "0:"
    INDEX 01 10:09:32
  TRACK 438 AUDIO
    TITLE "34:cjc023_4614"
    INDEX 01 10:09:56
  TRACK 439 AUDIO
    TITLE "0:"
    INDEX 01 10:11:59
  TRACK 440 AUDIO
    TITLE "35:cjc023_4615"
    INDEX 01 10:12:07
  TRACK 441 AUDIO
    TITLE "0:"
    INDEX 01 10:14:12
  TRACK 442 AUDIO
    TITLE "32:cjc023_4616"
    INDEX 01 10:15:09
  TRACK 443 AUDIO
    TITLE "0:"
    INDEX 01 10:16:44
  TRACK 444 AUDIO
    TITLE "33:cjc023_4617"
    INDEX 01 10:17:20
  TRACK 445 AUDIO
    TITLE "0:"
    INDEX 01 10:19:70
  TRACK 446 AUDIO
    TITLE "34:cjc023_4618"
    INDEX 01 10:20:16
  TRACK 447 AUDIO
    TITLE "0:"
    INDEX 01 10:23:23
  TRACK 448 AUDIO
    TITLE "35:cjc023_4619"
    INDEX 01 10:23:44
  TRACK 449 AUDIO
    TITLE "0:"
    INDEX 01 10:26:50
  TRACK 450 AUDIO
    TITLE "32:cjc023_4620"
    INDEX 01 10:27:48
  TRACK 451 AUDIO
    TITLE "0:"
    INDEX 01 10:28:63
  TRACK 452 AUDIO
    TITLE "33:cjc023_4621"
    INDEX 01 10:29:35
  TRACK 453 AUDIO
    TITLE "0:"
    INDEX 01 10:32:14
  TRACK 454 AUDIO
    TITLE "34:cjc023_4622"
    INDEX 01 10:32:33
  TRACK 455 AUDIO
    TITLE "0:"
    INDEX 01 10:35:57
  TRACK 456 AUDIO
    TITLE "35:cjc023_4623"
    INDEX 01 10:36:04
  TRACK 457 AUDIO
    TITLE "0:"
    INDEX 01 10:39:27
  TRACK 458 AUDIO
    TITLE "32:cjc023_4624"
    INDEX 01 10:40:23
  TRACK 459 AUDIO
    TITLE "0:"
    INDEX 01 10:41:36
  TRACK 460 AUDIO
    TITLE "33:cjc023_4625"
    INDEX 01 10:42:14
  TRACK 461 AUDIO
    TITLE "0:"
    INDEX 01 10:45:07
  TRACK 462 AUDIO
    TITLE "34:cjc023_4626"
    INDEX 01 10:45:30
  TRACK 463 AUDIO
    TITLE "0:"
    INDEX 01 10:47:68
  TRACK 464 AUDIO
    TITLE "35:cjc023_4627"
    INDEX 01 10:48:17
  TRACK 465 AUDIO
    TITLE "0:"
    INDEX 01 10:50:59
  TRACK 466 AUDIO
    TITLE "32:cjc023_4628"
    INDEX 01 10:51:54
  TRACK 467 AUDIO
    TITLE "0:"
    INDEX 01 10:52:71
  TRACK 468 AUDIO
    TITLE "33:cjc023_4629"
    INDEX 01 10:53:41
  TRACK 469 AUDIO
    TITLE "0:"
    INDEX 01 10:56:18
  TRACK 470 AUDIO
    TITLE "34:cjc023_4630"
    INDEX 01 10:56:42
  TRACK 471 AUDIO
    TITLE "0:"
    INDEX 01 10:59:13
  TRACK 472 AUDIO
    TITLE "35:cjc023_4631"
    INDEX 01 10:59:36
  TRACK 473 AUDIO
    TITLE "0:"
    INDEX 01 11:02:05
  TRACK 474 AUDIO
    TITLE "32:cjc023_4632"
    INDEX 01 11:03:06
  TRACK 475 AUDIO
    TITLE "0:"
    INDEX 01 11:04:31
  TRACK 476 AUDIO
    TITLE "33:cjc023_4633"
    INDEX 01 11:05:03
  TRACK 477 AUDIO
    TITLE "0:"
    INDEX 01 11:08:15
  TRACK 478 AUDIO
    TITLE "34:cjc023_4634"
    INDEX 01 11:08:37
  TRACK 479 AUDIO
    TITLE "0:"
    INDEX 01 11:11:00
  TRACK 480 AUDIO
    TITLE "35:cjc023_4635"
    INDEX 01 11:11:26
  TRACK 481 AUDIO
    TITLE "0:"
    INDEX 01 11:13:68
  TRACK 482 AUDIO
    TITLE "32:cjc023_4636"
    INDEX 01 11:14:67
  TRACK 483 AUDIO
    TITLE "0:"
    INDEX 01 11:16:09
  TRACK 484 AUDIO
    TITLE "33:cjc023_4637"
    INDEX 01 11:16:58
  TRACK 485 AUDIO
    TITLE "0:"
    INDEX 01 11:20:13
  TRACK 486 AUDIO
    TITLE "34:cjc023_4638"
    INDEX 01 11:20:32
  TRACK 487 AUDIO
    TITLE "0:"
    INDEX 01 11:22:65
  TRACK 488 AUDIO
    TITLE "35:cjc023_4639"
    INDEX 01 11:23:13
  TRACK 489 AUDIO
    TITLE "0:"
    INDEX 01 11:25:45
  TRACK 490 AUDIO
    TITLE "32:cjc023_4640"
    INDEX 01 11:26:43
  TRACK 491 AUDIO
    TITLE "0:"
    INDEX 01 11:27:48
  TRACK 492 AUDIO
    TITLE "33:cjc023_4641"
    INDEX 01 11:28:22
  TRACK 493 AUDIO
    TITLE "0:"
    INDEX 01 11:30:56
  TRACK 494 AUDIO
    TITLE "34:cjc023_4642"
    INDEX 01 11:31:05
  TRACK 495 AUDIO
    TITLE "0:"
    INDEX 01 11:33:06
  TRACK 496 AUDIO
    TITLE "35:cjc023_4643"
    INDEX 01 11:33:27
  TRACK 497 AUDIO
    TITLE "0:"
    INDEX 01 11:35:26
  TRACK 498 AUDIO
    TITLE "32:cjc023_4644"
    INDEX 01 11:36:24
  TRACK 499 AUDIO
    TITLE "0:"
    INDEX 01 11:37:50
  TRACK 500 AUDIO
    TITLE "33:cjc023_4645"
    INDEX 01 11:38:20
  TRACK 501 AUDIO
    TITLE "0:"
    INDEX 01 11:40:70
  TRACK 502 AUDIO
    TITLE "34:cjc023_4646"
    INDEX 01 11:41:17
  TRACK 503 AUDIO
    TITLE "0:"
    INDEX 01 11:43:63
  TRACK 504 AUDIO
    TITLE "35:cjc023_4647"
    INDEX 01 11:44:09
  TRACK 505 AUDIO
    TITLE "0:"
    INDEX 01 11:46:55
  TRACK 506 AUDIO
    TITLE "32:cjc023_4648"
    INDEX 01 11:47:49
  TRACK 507 AUDIO
    TITLE "0:"
    INDEX 01 11:49:16
  TRACK 508 AUDIO
    TITLE "33:cjc023_4649"
    INDEX 01 11:49:59
  TRACK 509 AUDIO
    TITLE "0:"
    INDEX 01 11:52:54
  TRACK 510 AUDIO
    TITLE "34:cjc023_4650"
    INDEX 01 11:52:73
  TRACK 511 AUDIO
    TITLE "0:"
    INDEX 01 11:55:29
  TRACK 512 AUDIO
    TITLE "35:cjc023_4651"
    INDEX 01 11:55:46
  TRACK 513 AUDIO
    TITLE "0:"
    INDEX 01 11:58:02
  TRACK 514 AUDIO
    TITLE "32:cjc023_4652"
    INDEX 01 11:59:05
  TRACK 515 AUDIO
    TITLE "0:"
    INDEX 01 12:00:42
  TRACK 516 AUDIO
    TITLE "33:cjc023_4653"
    INDEX 01 12:01:12
  TRACK 517 AUDIO
    TITLE "0:"
    INDEX 01 12:02:74
  TRACK 518 AUDIO
    TITLE "34:cjc023_4654"
    INDEX 01 12:03:22
  TRACK 519 AUDIO
    TITLE "0:"
    INDEX 01 12:05:64
  TRACK 520 AUDIO
    TITLE "35:cjc023_4655"
    INDEX 01 12:06:09
  TRACK 521 AUDIO
    TITLE "0:"
    INDEX 01 12:08:51
  TRACK 522 AUDIO
    TITLE "32:cjc023_4656"
    INDEX 01 12:09:46
  TRACK 523 AUDIO
    TITLE "0:"
    INDEX 01 12:10:48
  TRACK 524 AUDIO
    TITLE "33:cjc023_4657"
    INDEX 01 12:11:24
  TRACK 525 AUDIO
    TITLE "0:"
    INDEX 01 12:13:60
  TRACK 526 AUDIO
    TITLE "34:cjc023_4658"
    INDEX 01 12:14:08
  TRACK 527 AUDIO
    TITLE "0:"
    INDEX 01 12:16:15
  TRACK 528 AUDIO
    TITLE "35:cjc023_4659"
    INDEX 01 12:16:48
  TRACK 529 AUDIO
    TITLE "0:"
    INDEX 01 12:18:57
  TRACK 530 AUDIO
    TITLE "32:cjc023_4660"
    INDEX 01 12:19:63
  TRACK 531 AUDIO
    TITLE "0:"
    INDEX 01 12:21:01
  TRACK 532 AUDIO
    TITLE "33:cjc023_4661"
    INDEX 01 12:21:44
  TRACK 533 AUDIO
    TITLE "0:"
    INDEX 01 12:23:62
  TRACK 534 AUDIO
    TITLE "34:cjc023_4662"
    INDEX 01 12:24:07
  TRACK 535 AUDIO
    TITLE "0:"
    INDEX 01 12:26:41
  TRACK 536 AUDIO
    TITLE "35:cjc023_4663"
    INDEX 01 12:26:68
  TRACK 537 AUDIO
    TITLE "0:"
    INDEX 01 12:29:30
  TRACK 538 AUDIO
    TITLE "32:cjc023_4664"
    INDEX 01 12:30:35
  TRACK 539 AUDIO
    TITLE "0:"
    INDEX 01 12:31:44
  TRACK 540 AUDIO
    TITLE "33:cjc023_4665"
    INDEX 01 12:32:24
  TRACK 541 AUDIO
    TITLE "0:"
    INDEX 01 12:35:01
  TRACK 542 AUDIO
    TITLE "34:cjc023_4666"
    INDEX 01 12:35:26
  TRACK 543 AUDIO
    TITLE "0:"
    INDEX 01 12:37:55
  TRACK 544 AUDIO
    TITLE "35:cjc023_4667"
    INDEX 01 12:38:09
  TRACK 545 AUDIO
    TITLE "0:"
    INDEX 01 12:40:37
  TRACK 546 AUDIO
    TITLE "32:cjc023_4668"
    INDEX 01 12:41:37
  TRACK 547 AUDIO
    TITLE "0:"
    INDEX 01 12:42:62
  TRACK 548 AUDIO
    TITLE "33:cjc023_4669"
    INDEX 01 12:43:36
  TRACK 549 AUDIO
    TITLE "0:"
    INDEX 01 12:46:16
  TRACK 550 AUDIO
    TITLE "34:cjc023_4670"
    INDEX 01 12:46:36
  TRACK 551 AUDIO
    TITLE "0:"
    INDEX 01 12:49:21
  TRACK 552 AUDIO
    TITLE "35:cjc023_4671"
    INDEX 01 12:49:44
  TRACK 553 AUDIO
    TITLE "0:"
    INDEX 01 12:52:29
  TRACK 554 AUDIO
    TITLE "32:cjc023_4672"
    INDEX 01 12:53:26
  TRACK 555 AUDIO
    TITLE "0:"
    INDEX 01 12:54:43
  TRACK 556 AUDIO
    TITLE "33:cjc023_4673"
    INDEX 01 12:55:15
  TRACK 557 AUDIO
    TITLE "0:"
    INDEX 01 12:57:73
  TRACK 558 AUDIO
    TITLE "34:cjc023_4674"
    INDEX 01 12:58:18
  TRACK 559 AUDIO
    TITLE "0:"
    INDEX 01 13:00:56
  TRACK 560 AUDIO
    TITLE "35:cjc023_4675"
    INDEX 01 13:01:00
  TRACK 561 AUDIO
    TITLE "0:"
    INDEX 01 13:03:38
  TRACK 562 AUDIO
    TITLE "32:cjc023_4676"
    INDEX 01 13:04:34
  TRACK 563 AUDIO
    TITLE "0:"
    INDEX 01 13:05:29
  TRACK 564 AUDIO
    TITLE "33:cjc023_4677"
    INDEX 01 13:06:01
  TRACK 565 AUDIO
    TITLE "0:"
    INDEX 01 13:08:30
  TRACK 566 AUDIO
    TITLE "34:cjc023_4678"
    INDEX 01 13:08:51
  TRACK 567 AUDIO
    TITLE "0:"
    INDEX 01 13:11:03
  TRACK 568 AUDIO
    TITLE "35:cjc023_4679"
    INDEX 01 13:11:24
  TRACK 569 AUDIO
    TITLE "0:"
    INDEX 01 13:13:50
  TRACK 570 AUDIO
    TITLE "32:cjc023_4680"
    INDEX 01 13:14:46
  TRACK 571 AUDIO
    TITLE "0:"
    INDEX 01 13:15:57
  TRACK 572 AUDIO
    TITLE "33:cjc023_4681"
    INDEX 01 13:16:29
  TRACK 573 AUDIO
    TITLE "0:"
    INDEX 01 13:18:61
  TRACK 574 AUDIO
    TITLE "34:cjc023_4682"
    INDEX 01 13:19:16
  TRACK 575 AUDIO
    TITLE "0:"
    INDEX 01 13:21:38
  TRACK 576 AUDIO
    TITLE "35:cjc023_4683"
    INDEX 01 13:21:64
  TRACK 577 AUDIO
    TITLE "0:"
    INDEX 01 13:24:09
  TRACK 578 AUDIO
    TITLE "32:cjc023_4684"
    INDEX 01 13:25:10
  TRACK 579 AUDIO
    TITLE "0:"
    INDEX 01 13:26:06
  TRACK 580 AUDIO
    TITLE "33:cjc023_4685"
    INDEX 01 13:26:53
  TRACK 581 AUDIO
    TITLE "0:"
    INDEX 01 13:29:69
  TRACK 582 AUDIO
    TITLE "34:cjc023_4686"
    INDEX 01 13:30:18
  TRACK 583 AUDIO
    TITLE "0:"
    INDEX 01 13:32:32
  TRACK 584 AUDIO
    TITLE "35:cjc023_4687"
    INDEX 01 13:32:54
  TRACK 585 AUDIO
    TITLE "0:"
    INDEX 01 13:34:72
  TRACK 586 AUDIO
    TITLE "32:cjc023_4688"
    INDEX 01 13:35:70
  TRACK 587 AUDIO
    TITLE "0:"
    INDEX 01 13:37:00
  TRACK 588 AUDIO
    TITLE "33:cjc023_4689"
    INDEX 01 13:37:47
  TRACK 589 AUDIO
    TITLE "0:"
    INDEX 01 13:40:47
  TRACK 590 AUDIO
    TITLE "34:cjc023_4690"
    INDEX 01 13:40:69
  TRACK 591 AUDIO
    TITLE "0:"
    INDEX 01 13:43:32
  TRACK 592 AUDIO
    TITLE "35:cjc023_4691"
    INDEX 01 13:43:55
  TRACK 593 AUDIO
    TITLE "0:"
    INDEX 01 13:46:17
  TRACK 594 AUDIO
    TITLE "32:cjc023_4692"
    INDEX 01 13:47:14
  TRACK 595 AUDIO
    TITLE "0:"
    INDEX 01 13:48:43
  TRACK 596 AUDIO
    TITLE "33:cjc023_4693"
    INDEX 01 13:49:15
  TRACK 597 AUDIO
    TITLE "0:"
    INDEX 01 13:52:00
  TRACK 598 AUDIO
    TITLE "34:cjc023_4694"
    INDEX 01 13:52:21
  TRACK 599 AUDIO
    TITLE "0:"
    INDEX 01 13:55:33
  TRACK 600 AUDIO
    TITLE "35:cjc023_4695"
    INDEX 01 13:55:57
  TRACK 601 AUDIO
    TITLE "0:"
    INDEX 01 13:58:71
  TRACK 602 AUDIO
    TITLE "32:cjc023_4696"
    INDEX 01 13:59:66
  TRACK 603 AUDIO
    TITLE "0:"
    INDEX 01 14:00:73
  TRACK 604 AUDIO
    TITLE "33:cjc023_4697"
    INDEX 01 14:01:59
  TRACK 605 AUDIO
    TITLE "0:"
    INDEX 01 14:04:44
  TRACK 606 AUDIO
    TITLE "34:cjc023_4698"
    INDEX 01 14:04:67
  TRACK 607 AUDIO
    TITLE "0:"
    INDEX 01 14:07:15
  TRACK 608 AUDIO
    TITLE "35:cjc023_4699"
    INDEX 01 14:07:38
  TRACK 609 AUDIO
    TITLE "0:"
    INDEX 01 14:09:61
  TRACK 610 AUDIO
    TITLE "32:cjc023_4700"
    INDEX 01 14:10:60
  TRACK 611 AUDIO
    TITLE "0:"
    INDEX 01 14:11:63
  TRACK 612 AUDIO
    TITLE "33:cjc023_4701"
    INDEX 01 14:12:34
  TRACK 613 AUDIO
    TITLE "0:"
    INDEX 01 14:15:01
  TRACK 614 AUDIO
    TITLE "34:cjc023_4702"
    INDEX 01 14:15:20
  TRACK 615 AUDIO
    TITLE "0:"
    INDEX 01 14:17:45
  TRACK 616 AUDIO
    TITLE "35:cjc023_4703"
    INDEX 01 14:17:62
  TRACK 617 AUDIO
    TITLE "0:"
    INDEX 01 14:20:12
  TRACK 618 AUDIO
    TITLE "32:cjc023_4704"
    INDEX 01 14:21:05
  TRACK 619 AUDIO
    TITLE "0:"
    INDEX 01 14:22:26
  TRACK 620 AUDIO
    TITLE "33:cjc023_4705"
    INDEX 01 14:23:00
  TRACK 621 AUDIO
    TITLE "0:"
    INDEX 01 14:25:42
  TRACK 622 AUDIO
    TITLE "34:cjc023_4706"
    INDEX 01 14:25:66
  TRACK 623 AUDIO
    TITLE "0:"
    INDEX 01 14:28:35
  TRACK 624 AUDIO
    TITLE "35:cjc023_4707"
    INDEX 01 14:28:56
  TRACK 625 AUDIO
    TITLE "0:"
    INDEX 01 14:31:23
  TRACK 626 AUDIO
    TITLE "32:cjc023_4708"
    INDEX 01 14:32:21
  TRACK 627 AUDIO
    TITLE "0:"
    INDEX 01 14:33:53
  TRACK 628 AUDIO
    TITLE "33:cjc023_4709"
    INDEX 01 14:34:23
  TRACK 629 AUDIO
    TITLE "0:"
    INDEX 01 14:37:63
  TRACK 630 AUDIO
    TITLE "34:cjc023_4710"
    INDEX 01 14:38:15
  TRACK 631 AUDIO
    TITLE "0:"
    INDEX 01 14:40:65
  TRACK 632 AUDIO
    TITLE "35:cjc023_4711"
    INDEX 01 14:41:14
  TRACK 633 AUDIO
    TITLE "0:"
    INDEX 01 14:43:62
  TRACK 634 AUDIO
    TITLE "32:cjc023_4712"
    INDEX 01 14:44:59
  TRACK 635 AUDIO
    TITLE "0:"
    INDEX 01 14:46:11
  TRACK 636 AUDIO
    TITLE "33:cjc023_4713"
    INDEX 01 14:46:56
  TRACK 637 AUDIO
    TITLE "0:"
    INDEX 01 14:49:05
  TRACK 638 AUDIO
    TITLE "34:cjc023_4714"
    INDEX 01 14:49:27
  TRACK 639 AUDIO
    TITLE "0:"
    INDEX 01 14:51:65
  TRACK 640 AUDIO
    TITLE "35:cjc023_4715"
    INDEX 01 14:52:12
  TRACK 641 AUDIO
    TITLE "0:"
    INDEX 01 14:54:50
  TRACK 642 AUDIO
    TITLE "32:cjc023_4716"
    INDEX 01 14:55:45
  TRACK 643 AUDIO
    TITLE "0:"
    INDEX 01 14:56:62
  TRACK 644 AUDIO
    TITLE "33:cjc023_4717"
    INDEX 01 14:57:34
  TRACK 645 AUDIO
    TITLE "0:"
    INDEX 01 14:59:70
  TRACK 646 AUDIO
    TITLE "34:cjc023_4718"
    INDEX 01 15:00:21
  TRACK 647 AUDIO
    TITLE "0:"
    INDEX 01 15:03:07
  TRACK 648 AUDIO
    TITLE "35:cjc023_4719"
    INDEX 01 15:03:31
  TRACK 649 AUDIO
    TITLE "0:"
    INDEX 01 15:06:18
  TRACK 650 AUDIO
    TITLE "32:cjc023_4720"
    INDEX 01 15:07:11
  TRACK 651 AUDIO
    TITLE "0:"
    INDEX 01 15:08:18
  TRACK 652 AUDIO
    TITLE "33:cjc023_4721"
    INDEX 01 15:08:65
  TRACK 653 AUDIO
    TITLE "0:"
    INDEX 01 15:11:42
  TRACK 654 AUDIO
    TITLE "34:cjc023_4722"
    INDEX 01 15:11:64
  TRACK 655 AUDIO
    TITLE "0:"
    INDEX 01 15:14:50
  TRACK 656 AUDIO
    TITLE "35:cjc023_4723"
    INDEX 01 15:14:72
  TRACK 657 AUDIO
    TITLE "0:"
    INDEX 01 15:17:58
  TRACK 658 AUDIO
    TITLE "32:cjc023_4724"
    INDEX 01 15:18:54
  TRACK 659 AUDIO
    TITLE "0:"
    INDEX 01 15:19:63
  TRACK 660 AUDIO
    TITLE "33:cjc023_4725"
    INDEX 01 15:20:35
  TRACK 661 AUDIO
    TITLE "0:"
    INDEX 01 15:23:26
  TRACK 662 AUDIO
    TITLE "34:cjc023_4726"
    INDEX 01 15:23:49
  TRACK 663 AUDIO
    TITLE "0:"
    INDEX 01 15:26:54
  TRACK 664 AUDIO
    TITLE "35:cjc023_4727"
    INDEX 01 15:27:00
  TRACK 665 AUDIO
    TITLE "0:"
    INDEX 01 15:30:04
  TRACK 666 AUDIO
    TITLE "32:cjc023_4728"
    INDEX 01 15:31:02
  TRACK 667 AUDIO
    TITLE "0:"
    INDEX 01 15:32:15
  TRACK 668 AUDIO
    TITLE "33:cjc023_4729"
    INDEX 01 15:32:66
  TRACK 669 AUDIO
    TITLE "0:"
    INDEX 01 15:35:58
  TRACK 670 AUDIO
    TITLE "34:cjc023_4730"
    INDEX 01 15:36:09
  TRACK 671 AUDIO
    TITLE "0:"
    INDEX 01 15:39:03
  TRACK 672 AUDIO
    TITLE "35:cjc023_4731"
    INDEX 01 15:39:29
  TRACK 673 AUDIO
    TITLE "0:"
    INDEX 01 15:42:23
  TRACK 674 AUDIO
    TITLE "32:cjc023_4732"
    INDEX 01 15:43:23
  TRACK 675 AUDIO
    TITLE "0:"
    INDEX 01 15:44:20
  TRACK 676 AUDIO
    TITLE "33:cjc023_4733"
    INDEX 01 15:44:69
  TRACK 677 AUDIO
    TITLE "0:"
    INDEX 01 15:47:50
  TRACK 678 AUDIO
    TITLE "34:cjc023_4734"
    INDEX 01 15:47:73
  TRACK 679 AUDIO
    TITLE "0:"
    INDEX 01 15:50:44
  TRACK 680 AUDIO
    TITLE "35:cjc023_4735"
    INDEX 01 15:50:70
  TRACK 681 AUDIO
    TITLE "0:"
    INDEX 01 15:53:43
  TRACK 682 AUDIO
    TITLE "32:cjc023_4736"
    INDEX 01 15:54:38
  TRACK 683 AUDIO
    TITLE "0:"
    INDEX 01 15:55:65
  TRACK 684 AUDIO
    TITLE "33:cjc023_4737"
    INDEX 01 15:56:41
  TRACK 685 AUDIO
    TITLE "0:"
    INDEX 01 15:59:67
  TRACK 686 AUDIO
    TITLE "34:cjc023_4738"
    INDEX 01 16:00:13
  TRACK 687 AUDIO
    TITLE "0:"
    INDEX 01 16:03:19
  TRACK 688 AUDIO
    TITLE "35:cjc023_4739"
    INDEX 01 16:03:41
  TRACK 689 AUDIO
    TITLE "0:"
    INDEX 01 16:06:47
  TRACK 690 AUDIO
    TITLE "32:cjc023_4740"
    INDEX 01 16:07:43
  TRACK 691 AUDIO
    TITLE "0:"
    INDEX 01 16:08:50
  TRACK 692 AUDIO
    TITLE "33:cjc023_4741"
    INDEX 01 16:09:24
  TRACK 693 AUDIO
    TITLE "0:"
    INDEX 01 16:12:01
  TRACK 694 AUDIO
    TITLE "34:cjc023_4742"
    INDEX 01 16:12:20
  TRACK 695 AUDIO
    TITLE "0:"
    INDEX 01 16:14:51
  TRACK 696 AUDIO
    TITLE "35:cjc023_4743"
    INDEX 01 16:14:70
  TRACK 697 AUDIO
    TITLE "0:"
    INDEX 01 16:17:25
  TRACK 698 AUDIO
    TITLE "32:cjc023_4744"
    INDEX 01 16:18:21
  TRACK 699 AUDIO
    TITLE "0:"
    INDEX 01 16:19:42
  TRACK 700 AUDIO
    TITLE "33:cjc023_4745"
    INDEX 01 16:20:16
  TRACK 701 AUDIO
    TITLE "0:"
    INDEX 01 16:22:29
  TRACK 702 AUDIO
    TITLE "34:cjc023_4746"
    INDEX 01 16:22:48
  TRACK 703 AUDIO
    TITLE "0:"
    INDEX 01 16:25:35
  TRACK 704 AUDIO
    TITLE "35:cjc023_4747"
    INDEX 01 16:25:56
  TRACK 705 AUDIO
    TITLE "0:"
    INDEX 01 16:28:41
  TRACK 706 AUDIO
    TITLE "32:cjc023_4748"
    INDEX 01 16:29:38
  TRACK 707 AUDIO
    TITLE "0:"
    INDEX 01 16:30:44
  TRACK 708 AUDIO
    TITLE "33:cjc023_4749"
    INDEX 01 16:31:18
  TRACK 709 AUDIO
    TITLE "0:"
    INDEX 01 16:34:10
  TRACK 710 AUDIO
    TITLE "34:cjc023_4750"
    INDEX 01 16:34:30
  TRACK 711 AUDIO
    TITLE "0:"
    INDEX 01 16:37:42
  TRACK 712 AUDIO
    TITLE "35:cjc023_4751"
    INDEX 01 16:37:63
  TRACK 713 AUDIO
    TITLE "0:"
    INDEX 01 16:41:00
  TRACK 714 AUDIO
    TITLE "32:cjc023_4752"
    INDEX 01 16:41:71
  TRACK 715 AUDIO
    TITLE "0:"
    INDEX 01 16:43:09
  TRACK 716 AUDIO
    TITLE "33:cjc023_4753"
    INDEX 01 16:43:62
  TRACK 717 AUDIO
    TITLE "0:"
    INDEX 01 16:46:13
  TRACK 718 AUDIO
    TITLE "34:cjc023_4754"
    INDEX 01 16:46:37
  TRACK 719 AUDIO
    TITLE "0:"
    INDEX 01 16:48:73
  TRACK 720 AUDIO
    TITLE "35:cjc023_4755"
    INDEX 01 16:49:21
  TRACK 721 AUDIO
    TITLE "0:"
    INDEX 01 16:51:58
  TRACK 722 AUDIO
    TITLE "32:cjc023_4756"
    INDEX 01 16:52:53
  TRACK 723 AUDIO
    TITLE "0:"
    INDEX 01 16:54:17
  TRACK 724 AUDIO
    TITLE "33:cjc023_4757"
    INDEX 01 16:54:62
  TRACK 725 AUDIO
    TITLE "0:"
    INDEX 01 16:57:03
  TRACK 726 AUDIO
    TITLE "34:cjc023_4758"
    INDEX 01 16:57:23
  TRACK 727 AUDIO
    TITLE "0:"
    INDEX 01 16:59:55
  TRACK 728 AUDIO
    TITLE "35:cjc023_4759"
    INDEX 01 17:00:04
  TRACK 729 AUDIO
    TITLE "0:"
    INDEX 01 17:02:36
  TRACK 730 AUDIO
    TITLE "32:cjc023_4760"
    INDEX 01 17:03:33
  TRACK 731 AUDIO
    TITLE "0:"
    INDEX 01 17:04:62
  TRACK 732 AUDIO
    TITLE "33:cjc023_4761"
    INDEX 01 17:05:32
  TRACK 733 AUDIO
    TITLE "0:"
    INDEX 01 17:08:01
  TRACK 734 AUDIO
    TITLE "34:cjc023_4762"
    INDEX 01 17:08:25
  TRACK 735 AUDIO
    TITLE "0:"
    INDEX 01 17:11:00
  TRACK 736 AUDIO
    TITLE "35:cjc023_4763"
    INDEX 01 17:11:19
  TRACK 737 AUDIO
    TITLE "0:"
    INDEX 01 17:13:71
  TRACK 738 AUDIO
    TITLE "32:cjc023_4764"
    INDEX 01 17:14:65
  TRACK 739 AUDIO
    TITLE "0:"
    INDEX 01 17:15:62
  TRACK 740 AUDIO
    TITLE "33:cjc023_4765"
    INDEX 01 17:16:32
  TRACK 741 AUDIO
    TITLE "0:"
    INDEX 01 17:19:11
  TRACK 742 AUDIO
    TITLE "34:cjc023_4766"
    INDEX 01 17:19:32
  TRACK 743 AUDIO
    TITLE "0:"
    INDEX 01 17:22:05
  TRACK 744 AUDIO
    TITLE "35:cjc023_4767"
    INDEX 01 17:22:27
  TRACK 745 AUDIO
    TITLE "0:"
    INDEX 01 17:25:00
  TRACK 746 AUDIO
    TITLE "32:cjc023_4768"
    INDEX 01 17:25:72
  TRACK 747 AUDIO
    TITLE "0:"
    INDEX 01 17:27:20
  TRACK 748 AUDIO
    TITLE "33:cjc023_4769"
    INDEX 01 17:27:67
  TRACK 749 AUDIO
    TITLE "0:"
    INDEX 01 17:31:28
  TRACK 750 AUDIO
    TITLE "34:cjc023_4770"
    INDEX 01 17:31:51
  TRACK 751 AUDIO
    TITLE "0:"
    INDEX 01 17:34:42
  TRACK 752 AUDIO
    TITLE "35:cjc023_4771"
    INDEX 01 17:34:63
  TRACK 753 AUDIO
    TITLE "0:"
    INDEX 01 17:37:54
  TRACK 754 AUDIO
    TITLE "32:cjc023_4772"
    INDEX 01 17:38:49
  TRACK 755 AUDIO
    TITLE "0:"
    INDEX 01 17:39:72
  TRACK 756 AUDIO
    TITLE "33:cjc023_4773"
    INDEX 01 17:40:46
  TRACK 757 AUDIO
    TITLE "0:"
    INDEX 01 17:44:09
  TRACK 758 AUDIO
    TITLE "34:cjc023_4774"
    INDEX 01 17:44:32
  TRACK 759 AUDIO
    TITLE "0:"
    INDEX 01 17:47:27
  TRACK 760 AUDIO
    TITLE "35:cjc023_4775"
    INDEX 01 17:47:48
  TRACK 761 AUDIO
    TITLE "0:"
    INDEX 01 17:50:41
  TRACK 762 AUDIO
    TITLE "32:cjc023_4776"
    INDEX 01 17:51:38
  TRACK 763 AUDIO
    TITLE "0:"
    INDEX 01 17:52:65
  TRACK 764 AUDIO
    TITLE "33:cjc023_4777"
    INDEX 01 17:53:39
  TRACK 765 AUDIO
    TITLE "0:"
    INDEX 01 17:56:59
  TRACK 766 AUDIO
    TITLE "34:cjc023_4778"
    INDEX 01 17:57:08
  TRACK 767 AUDIO
    TITLE "0:"
    INDEX 01 17:59:59
  TRACK 768 AUDIO
    TITLE "35:cjc023_4779"
    INDEX 01 18:00:04
  TRACK 769 AUDIO
    TITLE "0:"
    INDEX 01 18:02:56
  TRACK 770 AUDIO
    TITLE "32:cjc023_4780"
    INDEX 01 18:03:51
  TRACK 771 AUDIO
    TITLE "0:"
    INDEX 01 18:04:66
  TRACK 772 AUDIO
    TITLE "33:cjc023_4781"
    INDEX 01 18:05:38
  TRACK 773 AUDIO
    TITLE "0:"
    INDEX 01 18:08:31
  TRACK 774 AUDIO
    TITLE "34:cjc023_4782"
    INDEX 01 18:08:52
  TRACK 775 AUDIO
    TITLE "0:"
    INDEX 01 18:10:73
  TRACK 776 AUDIO
    TITLE "35:cjc023_4783"
    INDEX 01 18:11:17
  TRACK 777 AUDIO
    TITLE "0:"
    INDEX 01 18:13:38
  TRACK 778 AUDIO
    TITLE "32:cjc023_4784"
    INDEX 01 18:14:31
  TRACK 779 AUDIO
    TITLE "0:"
    INDEX 01 18:15:56
  TRACK 780 AUDIO
    TITLE "33:cjc023_4785"
    INDEX 01 18:16:24
  TRACK 781 AUDIO
    TITLE "0:"
    INDEX 01 18:19:11
  TRACK 782 AUDIO
    TITLE "34:cjc023_4786"
    INDEX 01 18:19:37
  TRACK 783 AUDIO
    TITLE "0:"
    INDEX 01 18:22:07
  TRACK 784 AUDIO
    TITLE "35:cjc023_4787"
    INDEX 01 18:22:29
  TRACK 785 AUDIO
    TITLE "0:"
    INDEX 01 18:25:00
  TRACK 786 AUDIO
    TITLE "32:cjc023_4788"
    INDEX 01 18:25:70
  TRACK 787 AUDIO
    TITLE "0:"
    INDEX 01 18:27:16
  TRACK 788 AUDIO
    TITLE "33:cjc023_4789"
    INDEX 01 18:27:67
  TRACK 789 AUDIO
    TITLE "0:"
    INDEX 01 18:30:40
  TRACK 790 AUDIO
    TITLE "34:cjc023_4790"
    INDEX 01 18:30:64
  TRACK 791 AUDIO
    TITLE "0:"
    INDEX 01 18:33:25
  TRACK 792 AUDIO
    TITLE "35:cjc023_4791"
    INDEX 01 18:33:44
  TRACK 793 AUDIO
    TITLE "0:"
    INDEX 01 18:36:04
  TRACK 794 AUDIO
    TITLE "32:cjc023_4792"
    INDEX 01 18:36:74
  TRACK 795 AUDIO
    TITLE "0:"
    INDEX 01 18:38:03
  TRACK 796 AUDIO
    TITLE "33:cjc023_4793"
    INDEX 01 18:38:52
  TRACK 797 AUDIO
    TITLE "0:"
    INDEX 01 18:41:52
  TRACK 798 AUDIO
    TITLE "34:cjc023_4794"
    INDEX 01 18:41:73
  TRACK 799 AUDIO
    TITLE "0:"
    INDEX 01 18:45:03
  TRACK 800 AUDIO
    TITLE "35:cjc023_4795"
    INDEX 01 18:45:24
  TRACK 801 AUDIO
    TITLE "0:"
    INDEX 01 18:48:28
